<svg xmlns="http://www.w3.org/2000/svg" enable-background="new 0 0 512 512" viewBox="0 0 512 512" id="barber"><path fill="#8de2fc" d="M436,466.8v29.1c0,5.8-4.7,10.5-10.5,10.5H30.4c-5.8,0-10.5-4.7-10.5-10.5v-29c0-76.6,62.1-138.8,138.8-138.8
		h138.6C373.9,328.1,436,390.2,436,466.8z"></path><polygon fill="#f4dfd7" points="280 266.1 280 398.4 228 429.8 176 398.5 176 266.1"></polygon><path fill="#f4dfd7" d="M350,187.2c0,11.2-9.1,20.3-20.3,20.3l-1.8,14.2c-3.2,25.1-15.5,47.1-33.4,62.8
		c-17.8,15.7-41.1,25.1-66.5,25.1c-50.6,0-93.4-37.6-99.8-87.8l-1.8-14.2c-11.3,0-20.4-9.2-20.4-20.3c0-11.3,9.1-20.4,20.4-20.4
		V84.4h203.4v82.5C341,166.8,350,175.9,350,187.2z"></path><path fill="#e5cac3" d="M275.2 183.4c-1.7-4.1-7.5-4.1-9.2 0-1.1 2.7-4.2 3.9-6.8 2.8-2.7-1.1-3.9-4.2-2.8-6.8 5.3-12.8 23.3-12.6 28.6 0 1.1 2.7-.2 5.7-2.8 6.8C279.4 187.3 276.3 186.1 275.2 183.4zM174 186.2c-2.7-1.1-3.9-4.2-2.8-6.8 5.3-12.7 23.3-12.6 28.6 0 1.1 2.7-.1 5.7-2.8 6.9-2.7 1.1-5.7-.1-6.9-2.8-1.7-4.1-7.5-4.1-9.2 0C179.7 186.1 176.6 187.3 174 186.2z"></path><path fill="#d1dfe8" d="M233.2,426.7v79.6h-10.5v-79.6h2.9c1.5,2,2.3,3.1,2.4,3.1c0.7-1.1,1.5-2.1,2.1-3.1H233.2
		C233.2,426.7,233.2,426.7,233.2,426.7z"></path><path fill="#fff" d="M228,429.9c-16-10,37.7,23-71.4-43.1l-37.8,21.1l22.4-63.5l34.1-34.8c-1.1,9.1-1,18.4,0.7,28.3
		C180.6,365.7,223.9,425.8,228,429.9z"></path><path fill="#fff" d="M337.2,407.9l-37.8-21.1c-0.4,0-70.9,42.8-71.4,43.1c33.5-50.3,53.4-67.7,53.4-108.4c0-3.9-0.9-8-1.4-11.9
		l34.8,34.8L337.2,407.9z"></path><path fill="#b0bfc6" d="M329.8,207.5l-5.2,52.7c-3.8,30-23.4,55.4-51,66.3c-28.8,10.4-62.7,10.3-91.3,0c-27.6-10.9-47.1-36.3-51-66.3
		l-5.2-52.7c0,0,19.2,37,39.9,37c21.3,0,36.1-21.2,61.9-21.2c25.8,0,40.6,21.2,61.9,21.2C310.5,244.5,329.8,207.5,329.8,207.5z"></path><path fill="#d1dfe8" d="M228 280.7c-12.4 0-20.6 8.2-24.7 0-6.6-13.3 8.2-28.8 24.7-28.8s31.4 15.5 24.7 28.8C248.6 288.9 240.4 280.7 228 280.7zM459.4 422.6c-13.2 1.3-23.6 16.2-23.6 34.4h-.1c.3-36.3-14.6-55-41-65.9-10.4-4.3-18.4-13-22.2-23.6l-28-67.8c-3.6-8.8-1.6-18.7 4.5-25.3 2.5-2.7 6.9-1.8 8.4 1.5l36.1 76.6c4 8.5 10.8 15.4 19.3 19.5C433 381.7 448.5 397.6 459.4 422.6z"></path><path fill="#d1dfe8" d="M469.1,299.8l-28,67.8c-3.9,10.6-11.8,19.3-22.2,23.6c-26.2,10.8-41,29.3-41,65.1
		c-0.3-17.9-10.6-32.4-23.6-33.7c10.9-25,26.4-40.8,46.6-50.6c8.4-4.1,15.2-10.9,19.2-19.5l36.1-76.6c1.5-3.3,6-4.1,8.4-1.5
		C470.8,281.1,472.8,291,469.1,299.8z"></path><path fill="#dce5ea" d="M492.1 457.1c0-22-13.8-39.8-30.8-39.8-17 0-30.8 17.9-30.8 39.8 0 21.9 13.8 39.8 30.8 39.8 6.3 0 12.2-2.5 17.1-6.7.8 7.7-1.3 15.1-1.3 15.2-.8 2.8.8 5.7 3.6 6.5 2.8.8 5.7-.8 6.5-3.6.2-.7 4.4-15.8-.6-28.5C490.1 473.2 492.1 465.5 492.1 457.1zM461.3 486.4c-11.2 0-20.3-13.2-20.3-29.3 0-16.2 9.1-29.4 20.3-29.4s20.3 13.2 20.3 29.4c0 7.2-1.8 13.8-4.8 18.9 0 0 0 .1-.1.1C473 482.4 467.5 486.4 461.3 486.4zM352.3 417.2c-17 0-30.8 17.9-30.8 39.8 0 8.4 2 16.2 5.5 22.6-4.9 12.7-.8 27.8-.6 28.5.8 2.8 3.7 4.4 6.5 3.6 2.8-.8 4.4-3.7 3.6-6.5-.7-2.6-1.8-8.9-1.2-15.1 4.9 4.2 10.7 6.7 17 6.7 17 0 30.8-17.8 30.8-39.8C383.1 435.1 369.3 417.2 352.3 417.2zM352.3 486.4c-6.1 0-11.6-4-15.4-10.2-.1-.1-.1-.2-.1-.2-3-5.1-4.8-11.7-4.8-18.9 0-16.2 9.1-29.4 20.3-29.4 11.2 0 20.3 13.2 20.3 29.4C372.7 473.2 363.5 486.4 352.3 486.4z"></path><path fill="#b0bfc6" d="M227.9,123.1c19.8,1.7,39.6-3.7,55.9-15.1c3.2-2.3,7.5-2.5,10.9-0.5c14.7,7.5,24.2,22.5,24.6,39v10.2
		c0,5.6,4.5,10.2,10.2,10.2l0,0c5.6,0,10.2-4.5,10.2-10.2v-39.8c0.5-29.2-13.7-56.6-37.8-73c-33.7-22.1-65.1-10.1-69.7-9.9
		c-2.1,0.4-3.9-1.3-3.6-3.4l2.2-15.3c1.2-7.9-6.8-14-14-10.8c-9.3,6.2-17.5,14.1-24,23.2c-1.8,2.2-5.4,0.9-5.4-1.9V10.2
		c0-5.6-4.5-10.2-10.1-10.2c-22.2-0.1-61,26.6-61,70.3v86.4c0,5.6,4.5,10.2,10.2,10.2l0,0c5.6,0,10.2-4.5,10.2-10.2v-10.2
		c0.5-16.5,9.9-31.5,24.6-39c3.4-2,7.6-1.8,10.9,0.5C188.3,119.4,208.1,124.7,227.9,123.1z"></path></svg>